#!OML:ASF F:\VICON\USERDATA\INSTALL\rory3\rory3.ASF
:FULLY-SPECIFIED
:DEGREES
82
root 0.2881994568504249 17.834273773442295 40.581042395707605 -5.076051896717887 -5.157995434880023 -0.9301127567999363
lfemur -13.721709895222077 -1.3224182976542198 -23.180236411357786
ltibia 30.185213281116148
lfoot -7.933018970128355 -3.404001776458337
ltoes -2.5177911588155824
rfemur -12.843440667080316 -0.49084190083130386 22.465711772213442
rtibia 48.40351325318966
rfoot -4.810268861719168 -6.017236634560897
rtoes 3.1319704456698956
lowerback 10.006912440882749 1.1879924983226093 1.2233452229038229
upperback 0.3256055939292751 2.015063651860646 0.82451725602174
thorax -5.154913944602666 1.0655659515167826 0.017847595801405602
lowerneck -16.343533516851128 -2.8732693582124336 -2.014912305619401
upperneck 20.716148134183275 -3.473353098176709 1.3767136506549575
head 9.151432742657464 -1.7747987426985723 0.3799137980665079
lclavicle -4.532846847736101e-16 -7.764205462721457e-16
lhumerus -36.98718293310135 10.485800991253786 78.4847421845331
lradius 23.660026915106933
lwrist 5.113667625012651
lhand -27.579071646794272 22.303889040428416
lfingers 7.12502
lthumb -0.7211326685867747 53.39003165119675
rclavicle -4.541517426962084e-16 -7.77090694623385e-16
rhumerus -25.541501671646444 -16.476083633463116 -81.72682427953035
rradius 27.46011066721497
rwrist 3.53738144840222
rhand -18.283284708688186 22.510209080623735
rfingers 7.12502
rthumb 8.10970031528341 -7.082846145394929
83
root 0.2861590310591317 17.84051376910653 40.845551436390366 -5.192210595539452 -4.395630444566802 -0.5140303515319455
lfemur -10.864487162124902 -2.023305296851902 -24.22730822990365
ltibia 29.199587420787143
lfoot -8.250794961191152 -2.9768086138824357
ltoes -2.8441587654512013
rfemur -15.541299252644755 -0.6250509647935591 22.111136942114353
rtibia 47.85529372665034
rfoot -5.729596003685651 -6.556217760635073
rtoes 3.511629306361106
lowerback 10.109471058493268 0.9848812075577049 0.7527595144324477
upperback 0.36050099098820854 1.5914399719620833 0.7767640431679885
thorax -5.198167935786188 0.8890155236938884 0.2309635903286391
lowerneck -16.33655918863633 -2.866958699536506 -2.002885342163187
upperneck 20.699507718373653 -3.4730303482024265 1.3401775570743126
head 9.159193564423532 -1.7716679103839486 0.3818418412675534
lclavicle -4.532846847736098e-16 -7.764205462721454e-16
lhumerus -35.60213153566023 8.877604805475313 78.94464968930531
lradius 23.931511006201788
lwrist 5.407767926259209
lhand -27.82071386614698 21.60023654430504
lfingers 7.12502
lthumb -0.8100472907374485 53.09084399288553
rclavicle -4.541517426962085e-16 -7.770906946233851e-16
rhumerus -26.536855402972385 -17.26572361936099 -81.41533615951221
rradius 27.486048226154324
rwrist 3.4741794375073316
rhand -18.277944419531227 22.51343075699869
rfingers 7.12502
rthumb 8.100878721481212 -7.102844230010972
84
root 0.27879724183536264 17.832778571458114 41.49201837475907 -5.111918283578582 -3.5377524596624164 -0.03622896784348306
lfemur -8.614298489383419 -2.808622857108545 -25.055581793369065
ltibia 28.653045060072074
lfoot -8.582728364620394 -2.835118454438701
ltoes -3.0988863463623217
rfemur -18.7323645606464 -0.49849936968241115 21.331619961393137
rtibia 46.88027789959434
rfoot -6.120190766162258 -6.741058666792377
rtoes 3.707293694695786
lowerback 10.192317974887677 0.7746501772676316 0.2967306482050771
upperback 0.41631679753677925 1.2931190897246907 0.8170500289223073
thorax -5.169881196934509 0.7600091582132289 0.6166548135725839
lowerneck -16.314806467093355 -2.8513803233492934 -1.968018147405504
upperneck 20.68096605632325 -3.476857177581139 1.3365032521233058
head 9.17113751682615 -1.7637824942014955 0.4020948643958194
lclavicle -4.532846847736095e-16 -7.764205462721452e-16
lhumerus -33.8365145717825 7.2271765307954325 79.4014530201129
lradius 24.245947313500636
lwrist 5.772392404593303
lhand -27.61787744114078 22.213679625516026
lfingers 7.12502
lthumb -0.6363039268554704 53.54489174426245
rclavicle -4.541517426962086e-16 -7.770906946233851e-16
rhumerus -27.69105611575341 -17.648651646664945 -81.1818131211221
rradius 27.55224642396464
rwrist 3.504603632617928
rhand -18.219928270415984 22.635243035819844
rfingers 7.12502
rthumb 8.119676494396625 -7.081612844524511
85
root 0.2595538300130639 17.815864643903378 42.158726863222704 -4.83878832804305 -2.725340113724976 0.47093950170793164
lfemur -6.322174056975223 -3.309081675964917 -26.060432320135355
ltibia 28.103697358502338
lfoot -9.075461912740192 -3.1471683692066206
ltoes -3.4523584525698388
rfemur -20.657639354485788 0.09743404944983958 20.837258256315202
rtibia 45.608790873567216
rfoot -6.365107303879606 -6.989705172452703
rtoes 3.692629452548276
lowerback 10.258016810530227 0.5646813755313229 -0.152557704944408
upperback 0.437703565261223 0.8908095428864864 0.8354236914527492
thorax -5.173258897534558 0.5584848576048742 0.8156739080818198
lowerneck -16.315507162290093 -2.859879647636049 -1.9795968884270174
upperneck 20.66557755656664 -3.495723490238335 1.3556561229789335
head 9.173951407609248 -1.763892331636053 0.410335677113021
lclavicle -4.532846847736101e-16 -7.764205462721457e-16
lhumerus -32.09815288269826 5.306387622609827 79.70591851173032
lradius 24.53564125403269
lwrist 6.08276519009475
lhand -27.798229777730192 21.660828388074158
lfingers 7.12502
lthumb -0.7301812305448587 53.239236141399445
rclavicle -4.541517426962087e-16 -7.770906946233852e-16
rhumerus -28.78740827883416 -17.53606023530564 -80.98708442158784
rradius 27.5651186539526
rwrist 3.6372072859359923
rhand -18.234667128792594 22.620848494047223
rfingers 7.12502
rthumb 8.140183389027037 -7.047819126132729
86
root 0.23694503964750913 17.798342455377735 43.0621568279753 -4.364495388195222 -1.948010963091418 1.0282170710539011
lfemur -3.457691981567635 -3.390503278266521 -27.032955952010223
ltibia 26.974893932896663
lfoot -9.06617508255821 -3.25166866654959
ltoes -3.5971629578539854
rfemur -22.902071470263675 0.7686173759582653 19.894543357993275
rtibia 43.9468251970548
rfoot -6.6889737883826275 -7.2261637061354795
rtoes 3.7412847679376795
lowerback 10.29232503223227 0.3741900154636917 -0.5606253422452885
upperback 0.4687785934075644 0.6205481872047829 0.9074357219604418
thorax -5.090419560007653 0.42995413995578835 1.2069380516718589
lowerneck -16.31986808164214 -2.875075544710103 -2.008496220139262
upperneck 20.646584607565135 -3.5239574410867824 1.3848800751873578
head 9.167446559114705 -1.7698801790085779 0.4184364860527049
lclavicle -4.532846847736104e-16 -7.76420546272146e-16
lhumerus -30.1469487496921 3.592521752457455 79.91447266532981
lradius 24.794921491617103
lwrist 6.328578648683874
lhand -27.567065774984055 22.32212605979059
lfingers 7.12502
lthumb -0.5669925152174295 53.71510660274055
rclavicle -4.541517426962087e-16 -7.770906946233852e-16
rhumerus -29.667046488052627 -17.147958887355685 -80.80884515148706
rradius 27.48331920855125
rwrist 3.8133708997648523
rhand -18.22523679051662 22.639521787053337
rfingers 7.12502
rthumb 8.154635564263286 -7.023812049569861
87
root 0.2077208208621682 17.779183486664056 43.99228949171007 -3.766674666461548 -1.2432507447991323 1.5319211602688738
lfemur -0.3498825934052867 -3.1756612246743927 -27.37338870758766
ltibia 26.266923175524308
lfoot -8.954769083010962 -3.763736487798332
ltoes -3.7766662032310343
rfemur -23.400122462641242 1.9284719407969544 19.49498648211233
rtibia 42.39932029990454
rfoot -6.727626550915648 -7.151045331243964
rtoes 3.6940828738794207
lowerback 10.275580461160786 0.19976695101895023 -0.922088961204935
upperback 0.47468294573929426 0.25726426303657207 0.9318057319494226
thorax -5.03260145017728 0.26901237904531927 1.443777491653067
lowerneck -16.336424269021563 -2.881989600640991 -2.0262841525602697
upperneck 20.635704673597868 -3.542205395137975 1.4312857754233748
head 9.154099936188084 -1.7826240114004697 0.41854631684255406
lclavicle -4.532846847736093e-16 -7.764205462721451e-16
lhumerus -28.35563121039861 1.8718947044956606 79.94450644101616
lradius 24.93059196062123
lwrist 6.566863037984504
lhand -27.79319252519476 21.665892677611247
lfingers 7.12502
lthumb -0.7348558814458719 53.25221020536603
rclavicle -4.541517426962086e-16 -7.770906946233852e-16
rhumerus -30.38767763833608 -16.894356064689475 -80.64957198479057
rradius 27.346896264827286
rwrist 3.8903359107441493
rhand -18.194084636239715 22.696699083502043
rfingers 7.12502
rthumb 8.143685606080629 -7.053805625546531
